<svg version="1.0" xmlns="http://www.w3.org/2000/svg" width="128" height="128" viewBox="0 0 1200 1200">
    <rect width="100%" height="100%" fill="#fff" />
     <g fill="#37538C">
       <path d="M0 600v600h1200V0H0v600zm632-499c122.8 8.5 235.6 59.6 321.5 145.5C1047.1 340.1 1100 467.7 1100 600c0 86.5-23 173.1-65.9 248-65 113.4-170.4 196.2-296.1 232.5-129 37.2-269.4 20.3-386-46.4-113.4-65-196.2-170.4-232.5-296.1-37.2-129-20.3-269.4 46.4-386 71.8-125.3 194.3-213.8 334.8-241.9 43.8-8.8 89.8-12 131.3-9.1z"/>
       <path d="M582 204.4v39.3l-9.2.7c-109.9 8.4-210.3 67.9-271.6 160.9-32.1 48.8-52.7 109-57 166.7l-.7 9.5-39.2.3-39.3.2v36h39.5c39 0 39.5 0 39.5 2 0 4.3 3.1 31.3 4.6 39.7 2.6 15.4 6.5 31.4 11.1 46.2 6 19.5 5.2 18.4 11.1 16.1 2.6-1 8.5-3.3 13.2-5 4.7-1.8 8.6-3.3 8.7-3.4.2-.2-1.1-4.3-2.8-9.2-4.7-13.7-10.5-37.4-12.8-52.4-2.2-14-4-32.8-3.2-33.5.2-.3 18.8-.5 41.3-.5H356v-36H272.7l.7-8.8c11-140.1 114.2-259.3 252.6-291.8 14.6-3.4 38.4-7 49.5-7.5l6-.3.3 40.7.2 40.7h36l.2-40.8.3-40.7 5 .3c74 4.2 153.1 40.4 206.5 94.2 6.3 6.4 13.9 14.4 16.8 17.8l5.4 6.2H749v30h148V273h-29v91.4l-15.7-15.6c-17.3-17.2-23.4-22.5-39.5-34.6-53.3-39.9-119.4-64.7-186-69.7l-8.8-.7V165h-36v39.4z"/>
       <path d="M919.5 481.7c-6.6 2.5-12.1 4.7-12.2 4.8-.2.1 1.3 4.8 3.2 10.6 7.6 22.3 13.9 53.2 15.1 74.1l.7 10.8H845v36l40.7.2 40.7.3-.3 6c-.1 3.3-.9 10.9-1.7 17-18.1 139.4-124 252.5-261.9 279.4-13.9 2.7-28.5 4.6-39.5 5.3l-4.5.3-.3-40.8-.2-40.7h-36l-.2 40.7-.3 40.8-5-.3c-10.3-.6-29.5-3.4-43.7-6.3-51.4-10.4-102.1-35.1-143.1-69.6-10.3-8.7-31-29.1-37.6-37.1l-4.3-5.2H451v-30H303v149h29v-91l15.4 15.3c30.1 30.1 60.1 51.4 97.9 69.7 40.2 19.4 84 31.3 128 34.5l8.7.7v78.8h36V956.3l12.8-1.2c67.3-6.7 125.8-28.7 178.7-67.1 64.2-46.7 112.1-115.2 133.4-191.2 6.4-22.8 10.6-46 12.6-70.6l.7-8.2h79.8v-36h-79.8l-.7-6.8c-3.2-34.8-7.3-56.4-16.1-84-3.5-10.9-5-14.2-6.2-14.1-1 0-7.1 2.1-13.7 4.6z"/>
     </g>
</svg>
